<svg width="21" height="20" viewBox="0 0 21 20" fill="none" xmlns="http://www.w3.org/2000/svg">
<path d="M19 9.33333V4.66667H15.6667V0H3.33333C2.44928 0 1.60143 0.351189 0.976311 0.976311C0.351189 1.60143 0 2.44928 0 3.33333V16.6667C0 17.5507 0.351189 18.3986 0.976311 19.0237C1.60143 19.6488 2.44928 20 3.33333 20H19V15.3333H20.6667V9.33333H19ZM18.6667 13.3333H14.3333C14.0681 13.3333 13.8138 13.228 13.6262 13.0404C13.4387 12.8529 13.3333 12.5985 13.3333 12.3333C13.3333 12.0681 13.4387 11.8138 13.6262 11.6262C13.8138 11.4387 14.0681 11.3333 14.3333 11.3333H18.6667V13.3333ZM3.33333 2H13.6667V4.66667H3.33333C2.97971 4.66667 2.64057 4.52619 2.39052 4.27614C2.14048 4.02609 2 3.68696 2 3.33333C2 2.97971 2.14048 2.64057 2.39052 2.39052C2.64057 2.14048 2.97971 2 3.33333 2ZM3.33333 18C2.97971 18 2.64057 17.8595 2.39052 17.6095C2.14048 17.3594 2 17.0203 2 16.6667V6.38667C2.42022 6.57145 2.87428 6.6668 3.33333 6.66667H17V9.33333H14.3333C13.5377 9.33333 12.7746 9.6494 12.212 10.212C11.6494 10.7746 11.3333 11.5377 11.3333 12.3333C11.3333 13.129 11.6494 13.892 12.212 14.4547C12.7746 15.0173 13.5377 15.3333 14.3333 15.3333H17V18H3.33333Z" fill="white"/>
</svg>
